<?xml version="1.0" encoding="UTF-8"?>
<svg xmlns="http://www.w3.org/2000/svg" width="2400" height="1260" viewBox="0 0 2400 1260">
  <defs>
    <linearGradient id="bg" x1="0" y1="0" x2="0" y2="1">
      <stop offset="0%" stop-color="#07101d" />
      <stop offset="100%" stop-color="#01040a" />
    </linearGradient>
    <pattern id="grid" width="120" height="120" patternUnits="userSpaceOnUse">
      <path d="M 120 0 L 0 0 0 120" fill="none" stroke="rgba(110, 247, 255, 0.05)" stroke-width="1" />
    </pattern>
    <style>
      text {
        font-family: "SF Mono", "Azeret Mono", "IBM Plex Mono", monospace;
        letter-spacing: 0.02em;
      }
      .title {
        fill: #f3fbff;
        font-size: 42px;
        font-weight: 700;
      }
      .subtitle {
        fill: rgba(179, 214, 255, 0.88);
        font-size: 21px;
        font-weight: 500;
      }
      .card {
        fill: rgba(4, 12, 24, 0.88);
        stroke: rgba(110, 247, 255, 0.25);
        stroke-width: 2;
      }
      .card-title {
        fill: #f3fbff;
        font-size: 22px;
        font-weight: 700;
      }
      .card-id {
        fill: rgba(179, 214, 255, 0.72);
        font-size: 14px;
        font-weight: 500;
      }
      .card-archetype {
        font-size: 16px;
        font-weight: 600;
      }
      .card-blasters {
        fill: rgba(179, 214, 255, 0.92);
        font-size: 16px;
        font-weight: 500;
      }
      .card-meta {
        fill: rgba(179, 214, 255, 0.68);
        font-size: 13px;
        font-weight: 500;
      }
      .block {
        stroke-width: 2;
        stroke-linecap: round;
        stroke-linejoin: round;
      }
    </style>
  </defs>
  <rect width="2400" height="1260" fill="url(#bg)" />
  <rect width="2400" height="1260" fill="url(#grid)" />
  <text class="title" x="44" y="62">Neon Blaster X Small Enemy Candidates</text>
  <text class="subtitle" x="44" y="100">Proposal only: 2 additional small early-game ship designs per archetype, built from legal attach steps</text>
  <text class="subtitle" x="44" y="132">Not implemented in runtime yet. Intended to widen the early pool with smaller footprints and clearer salvage starters.</text>
  
      <g transform="translate(44 190)">
        <rect class="card" x="0" y="0" width="432" height="470" rx="22" />
        <rect x="16" y="16" width="400" height="46" rx="12" fill="rgba(255, 95, 127, 0.16)" />
        <text class="card-title" x="24" y="46">Dart</text>
        <text class="card-id" x="24" y="446">needle-dart</text>
        
    <g transform="translate(216 248)">
      <g transform="scale(1.180)">
        
        <g transform="translate(0.00 0.00) rotate(0)">
          
    <g class="block" stroke="#ff5f7f" fill="rgba(255, 95, 127, 0.04)">
      <rect x="-12.24" y="-12.24" width="24.48" height="24.48" />
      <path d="M 0 -3 C 7 -12 14 -4 0 10 C -14 -4 -7 -12 0 -3" fill="none" />
    </g>
  
        </g>
      
        <g transform="translate(0.00 51.00) rotate(0)">
          
    <g class="block" stroke="#ff5f7f" fill="rgba(255, 95, 127, 0.04)">
      <rect x="-12.24" y="-29.24" width="24.48" height="58.48" />
      <line x1="-7.83" y1="-21.24" x2="7.83" y2="21.24" />
      <line x1="-7.83" y1="21.24" x2="7.83" y2="-21.24" />
      <line x1="-8.32" y1="0.00" x2="8.32" y2="0.00" />
    </g>
  
        </g>
      
        <g transform="translate(0.00 -34.00) rotate(0)">
          
    <g class="block" stroke="#ff5f7f" fill="none">
      <path d="M -10 12 L -9 -6 L -4 -14 L 4 -14 L 9 -6 L 10 12 Z" />
      <line x1="0" y1="-14" x2="0" y2="-22" />
      
    </g>
  
        </g>
      
        <g transform="translate(0.00 102.00) rotate(0)">
          
    <g class="block" stroke="#ff5f7f" fill="none">
      <path d="M -11 -12 L 11 -12 L 7 10 L -7 10 Z" />
    </g>
  
        </g>
      
      </g>
      
    <g transform="translate(0.00 0.00) scale(1.180)" stroke="#ff5f7f" fill="none" stroke-width="2" stroke-linecap="round" stroke-linejoin="round">
      <path d="M -12.24 -7 L -17.68 -4 L -17.68 4 L -12.24 7" /><path d="M 12.24 -7 L 17.68 -4 L 17.68 4 L 12.24 7" />
    </g>
  
      <text class="card-archetype" x="0" y="-162" fill="#ff5f7f" text-anchor="middle">NEEDLE</text>
      <text class="card-blasters" x="0" y="160" text-anchor="middle">B 1  •  T 1  •  S 0</text>
      <text class="card-meta" x="0" y="184" text-anchor="middle">1x5 FOOTPRINT  •  5 CELLS</text>
    </g>
  
      </g>
    
      <g transform="translate(500 190)">
        <rect class="card" x="0" y="0" width="432" height="470" rx="22" />
        <rect x="16" y="16" width="400" height="46" rx="12" fill="rgba(255, 95, 127, 0.16)" />
        <text class="card-title" x="24" y="46">Flechette</text>
        <text class="card-id" x="24" y="446">needle-flechette</text>
        
    <g transform="translate(216 248)">
      <g transform="scale(1.180)">
        
        <g transform="translate(0.00 0.00) rotate(0)">
          
    <g class="block" stroke="#ff5f7f" fill="rgba(255, 95, 127, 0.04)">
      <rect x="-12.24" y="-12.24" width="24.48" height="24.48" />
      <path d="M 0 -3 C 7 -12 14 -4 0 10 C -14 -4 -7 -12 0 -3" fill="none" />
    </g>
  
        </g>
      
        <g transform="translate(0.00 51.00) rotate(0)">
          
    <g class="block" stroke="#ff5f7f" fill="rgba(255, 95, 127, 0.04)">
      <rect x="-12.24" y="-29.24" width="24.48" height="58.48" />
      <line x1="-7.83" y1="-21.24" x2="7.83" y2="21.24" />
      <line x1="-7.83" y1="21.24" x2="7.83" y2="-21.24" />
      <line x1="-8.32" y1="0.00" x2="8.32" y2="0.00" />
    </g>
  
        </g>
      
        <g transform="translate(0.00 -34.00) rotate(0)">
          
    <g class="block" stroke="#ff5f7f" fill="none">
      <path d="M -10 12 L -9 -6 L -4 -14 L 4 -14 L 9 -6 L 10 12 Z" />
      <line x1="-6" y1="-14" x2="-6" y2="-22" /><line x1="6" y1="-14" x2="6" y2="-22" />
      
    </g>
  
        </g>
      
        <g transform="translate(0.00 102.00) rotate(0)">
          
    <g class="block" stroke="#ff5f7f" fill="none">
      <path d="M -11 -12 L 11 -12 L 7 10 L -7 10 Z" />
    </g>
  
        </g>
      
        <g transform="translate(34.00 68.00) rotate(270)">
          
    <g class="block" stroke="#ff5f7f" fill="none">
      <path d="M -11 -12 L 11 -12 L 7 10 L -7 10 Z" />
    </g>
  
        </g>
      
      </g>
      
    <g transform="translate(0.00 0.00) scale(1.180)" stroke="#ff5f7f" fill="none" stroke-width="2" stroke-linecap="round" stroke-linejoin="round">
      <path d="M -12.24 -7 L -17.68 -4 L -17.68 4 L -12.24 7" /><path d="M 12.24 -7 L 17.68 -4 L 17.68 4 L 12.24 7" />
    </g>
  
      <text class="card-archetype" x="0" y="-162" fill="#ff5f7f" text-anchor="middle">NEEDLE</text>
      <text class="card-blasters" x="0" y="160" text-anchor="middle">B 1  •  T 2  •  S 0</text>
      <text class="card-meta" x="0" y="184" text-anchor="middle">2x5 FOOTPRINT  •  6 CELLS</text>
    </g>
  
      </g>
    
      <g transform="translate(956 190)">
        <rect class="card" x="0" y="0" width="432" height="470" rx="22" />
        <rect x="16" y="16" width="400" height="46" rx="12" fill="rgba(255, 157, 74, 0.16)" />
        <text class="card-title" x="24" y="46">Brace</text>
        <text class="card-id" x="24" y="446">bulwark-brace</text>
        
    <g transform="translate(216 248)">
      <g transform="scale(1.180)">
        
        <g transform="translate(0.00 0.00) rotate(0)">
          
    <g class="block" stroke="#ff5f7f" fill="rgba(255, 95, 127, 0.04)">
      <rect x="-12.24" y="-12.24" width="24.48" height="24.48" />
      <path d="M 0 -3 C 7 -12 14 -4 0 10 C -14 -4 -7 -12 0 -3" fill="none" />
    </g>
  
        </g>
      
        <g transform="translate(-34.00 0.00) rotate(0)">
          
    <g class="block" stroke="#ff9d4a" fill="rgba(255, 157, 74, 0.04)">
      <rect x="-12.24" y="-12.24" width="24.48" height="24.48" />
      <line x1="-7.83" y1="-8.32" x2="7.83" y2="8.32" />
      <line x1="-7.83" y1="8.32" x2="7.83" y2="-8.32" />
      
    </g>
  
        </g>
      
        <g transform="translate(34.00 0.00) rotate(0)">
          
    <g class="block" stroke="#ff9d4a" fill="rgba(255, 157, 74, 0.04)">
      <rect x="-12.24" y="-12.24" width="24.48" height="24.48" />
      <line x1="-7.83" y1="-8.32" x2="7.83" y2="8.32" />
      <line x1="-7.83" y1="8.32" x2="7.83" y2="-8.32" />
      
    </g>
  
        </g>
      
        <g transform="translate(0.00 34.00) rotate(0)">
          
    <g class="block" stroke="#ff9d4a" fill="rgba(255, 157, 74, 0.04)">
      <rect x="-12.24" y="-12.24" width="24.48" height="24.48" />
      <line x1="-7.83" y1="-8.32" x2="7.83" y2="8.32" />
      <line x1="-7.83" y1="8.32" x2="7.83" y2="-8.32" />
      
    </g>
  
        </g>
      
        <g transform="translate(-68.00 0.00) rotate(270)">
          
    <g class="block" stroke="#ff9d4a" fill="none">
      <path d="M -12 18 Q 0 -12 12 18" />
      <line x1="-10" y1="7" x2="10" y2="7" />
    </g>
  
        </g>
      
        <g transform="translate(0.00 68.00) rotate(0)">
          
    <g class="block" stroke="#ff9d4a" fill="none">
      <path d="M -11 -12 L 11 -12 L 7 10 L -7 10 Z" />
    </g>
  
        </g>
      
      </g>
      
    <g transform="translate(0.00 0.00) scale(1.180)" stroke="#ff5f7f" fill="none" stroke-width="2" stroke-linecap="round" stroke-linejoin="round">
      
    </g>
  
      <text class="card-archetype" x="0" y="-162" fill="#ff9d4a" text-anchor="middle">BULWARK</text>
      <text class="card-blasters" x="0" y="160" text-anchor="middle">B 0  •  T 1  •  S 1</text>
      <text class="card-meta" x="0" y="184" text-anchor="middle">4x3 FOOTPRINT  •  6 CELLS</text>
    </g>
  
      </g>
    
      <g transform="translate(1412 190)">
        <rect class="card" x="0" y="0" width="432" height="470" rx="22" />
        <rect x="16" y="16" width="400" height="46" rx="12" fill="rgba(255, 157, 74, 0.16)" />
        <text class="card-title" x="24" y="46">Ward</text>
        <text class="card-id" x="24" y="446">bulwark-ward</text>
        
    <g transform="translate(216 248)">
      <g transform="scale(1.180)">
        
        <g transform="translate(0.00 0.00) rotate(0)">
          
    <g class="block" stroke="#ff5f7f" fill="rgba(255, 95, 127, 0.04)">
      <rect x="-12.24" y="-12.24" width="24.48" height="24.48" />
      <path d="M 0 -3 C 7 -12 14 -4 0 10 C -14 -4 -7 -12 0 -3" fill="none" />
    </g>
  
        </g>
      
        <g transform="translate(-34.00 0.00) rotate(0)">
          
    <g class="block" stroke="#ff9d4a" fill="rgba(255, 157, 74, 0.04)">
      <rect x="-12.24" y="-12.24" width="24.48" height="24.48" />
      <line x1="-7.83" y1="-8.32" x2="7.83" y2="8.32" />
      <line x1="-7.83" y1="8.32" x2="7.83" y2="-8.32" />
      
    </g>
  
        </g>
      
        <g transform="translate(34.00 0.00) rotate(0)">
          
    <g class="block" stroke="#ff9d4a" fill="rgba(255, 157, 74, 0.04)">
      <rect x="-12.24" y="-12.24" width="24.48" height="24.48" />
      <line x1="-7.83" y1="-8.32" x2="7.83" y2="8.32" />
      <line x1="-7.83" y1="8.32" x2="7.83" y2="-8.32" />
      
    </g>
  
        </g>
      
        <g transform="translate(0.00 -34.00) rotate(0)">
          
    <g class="block" stroke="#ff9d4a" fill="none">
      <path d="M -10 12 L -9 -6 L -4 -14 L 4 -14 L 9 -6 L 10 12 Z" />
      <line x1="0" y1="-14" x2="0" y2="-22" />
      
    </g>
  
        </g>
      
        <g transform="translate(68.00 0.00) rotate(90)">
          
    <g class="block" stroke="#ff9d4a" fill="none">
      <path d="M -12 18 Q 0 -12 12 18" />
      <line x1="-10" y1="7" x2="10" y2="7" />
    </g>
  
        </g>
      
        <g transform="translate(0.00 34.00) rotate(0)">
          
    <g class="block" stroke="#ff9d4a" fill="none">
      <path d="M -11 -12 L 11 -12 L 7 10 L -7 10 Z" />
    </g>
  
        </g>
      
      </g>
      
    <g transform="translate(0.00 0.00) scale(1.180)" stroke="#ff5f7f" fill="none" stroke-width="2" stroke-linecap="round" stroke-linejoin="round">
      
    </g>
  
      <text class="card-archetype" x="0" y="-162" fill="#ff9d4a" text-anchor="middle">BULWARK</text>
      <text class="card-blasters" x="0" y="160" text-anchor="middle">B 1  •  T 1  •  S 1</text>
      <text class="card-meta" x="0" y="184" text-anchor="middle">4x3 FOOTPRINT  •  6 CELLS</text>
    </g>
  
      </g>
    
      <g transform="translate(1868 190)">
        <rect class="card" x="0" y="0" width="432" height="470" rx="22" />
        <rect x="16" y="16" width="400" height="46" rx="12" fill="rgba(99, 199, 255, 0.16)" />
        <text class="card-title" x="24" y="46">Skiff</text>
        <text class="card-id" x="24" y="446">manta-skiff</text>
        
    <g transform="translate(216 248)">
      <g transform="scale(1.180)">
        
        <g transform="translate(0.00 0.00) rotate(0)">
          
    <g class="block" stroke="#ff5f7f" fill="rgba(255, 95, 127, 0.04)">
      <rect x="-12.24" y="-12.24" width="24.48" height="24.48" />
      <path d="M 0 -3 C 7 -12 14 -4 0 10 C -14 -4 -7 -12 0 -3" fill="none" />
    </g>
  
        </g>
      
        <g transform="translate(-34.00 0.00) rotate(0)">
          
    <g class="block" stroke="#63c7ff" fill="rgba(99, 199, 255, 0.04)">
      <rect x="-12.24" y="-12.24" width="24.48" height="24.48" />
      <line x1="-7.83" y1="-8.32" x2="7.83" y2="8.32" />
      <line x1="-7.83" y1="8.32" x2="7.83" y2="-8.32" />
      
    </g>
  
        </g>
      
        <g transform="translate(34.00 0.00) rotate(0)">
          
    <g class="block" stroke="#63c7ff" fill="rgba(99, 199, 255, 0.04)">
      <rect x="-12.24" y="-12.24" width="24.48" height="24.48" />
      <line x1="-7.83" y1="-8.32" x2="7.83" y2="8.32" />
      <line x1="-7.83" y1="8.32" x2="7.83" y2="-8.32" />
      
    </g>
  
        </g>
      
        <g transform="translate(0.00 -34.00) rotate(0)">
          
    <g class="block" stroke="#63c7ff" fill="none">
      <path d="M -10 12 L -9 -6 L -4 -14 L 4 -14 L 9 -6 L 10 12 Z" />
      <line x1="0" y1="-14" x2="0" y2="-22" />
      <line x1="0" y1="-14" x2="-7" y2="-22" /><line x1="0" y1="-14" x2="7" y2="-22" />
    </g>
  
        </g>
      
        <g transform="translate(0.00 34.00) rotate(0)">
          
    <g class="block" stroke="#63c7ff" fill="none">
      <path d="M -11 -12 L 11 -12 L 7 10 L -7 10 Z" />
    </g>
  
        </g>
      
      </g>
      
    <g transform="translate(0.00 0.00) scale(1.180)" stroke="#ff5f7f" fill="none" stroke-width="2" stroke-linecap="round" stroke-linejoin="round">
      
    </g>
  
      <text class="card-archetype" x="0" y="-162" fill="#63c7ff" text-anchor="middle">MANTA</text>
      <text class="card-blasters" x="0" y="160" text-anchor="middle">B 1  •  T 1  •  S 0</text>
      <text class="card-meta" x="0" y="184" text-anchor="middle">3x3 FOOTPRINT  •  5 CELLS</text>
    </g>
  
      </g>
    
      <g transform="translate(44 684)">
        <rect class="card" x="0" y="0" width="432" height="470" rx="22" />
        <rect x="16" y="16" width="400" height="46" rx="12" fill="rgba(99, 199, 255, 0.16)" />
        <text class="card-title" x="24" y="46">Fan</text>
        <text class="card-id" x="24" y="446">manta-fan</text>
        
    <g transform="translate(216 248)">
      <g transform="scale(1.180)">
        
        <g transform="translate(0.00 0.00) rotate(0)">
          
    <g class="block" stroke="#ff5f7f" fill="rgba(255, 95, 127, 0.04)">
      <rect x="-12.24" y="-12.24" width="24.48" height="24.48" />
      <path d="M 0 -3 C 7 -12 14 -4 0 10 C -14 -4 -7 -12 0 -3" fill="none" />
    </g>
  
        </g>
      
        <g transform="translate(-34.00 0.00) rotate(0)">
          
    <g class="block" stroke="#63c7ff" fill="rgba(99, 199, 255, 0.04)">
      <rect x="-12.24" y="-12.24" width="24.48" height="24.48" />
      <line x1="-7.83" y1="-8.32" x2="7.83" y2="8.32" />
      <line x1="-7.83" y1="8.32" x2="7.83" y2="-8.32" />
      
    </g>
  
        </g>
      
        <g transform="translate(34.00 0.00) rotate(0)">
          
    <g class="block" stroke="#63c7ff" fill="rgba(99, 199, 255, 0.04)">
      <rect x="-12.24" y="-12.24" width="24.48" height="24.48" />
      <line x1="-7.83" y1="-8.32" x2="7.83" y2="8.32" />
      <line x1="-7.83" y1="8.32" x2="7.83" y2="-8.32" />
      
    </g>
  
        </g>
      
        <g transform="translate(-34.00 -34.00) rotate(0)">
          
    <g class="block" stroke="#63c7ff" fill="rgba(99, 199, 255, 0.04)">
      <rect x="-12.24" y="-12.24" width="24.48" height="24.48" />
      <line x1="-7.83" y1="-8.32" x2="7.83" y2="8.32" />
      <line x1="-7.83" y1="8.32" x2="7.83" y2="-8.32" />
      
    </g>
  
        </g>
      
        <g transform="translate(34.00 -34.00) rotate(0)">
          
    <g class="block" stroke="#63c7ff" fill="rgba(99, 199, 255, 0.04)">
      <rect x="-12.24" y="-12.24" width="24.48" height="24.48" />
      <line x1="-7.83" y1="-8.32" x2="7.83" y2="8.32" />
      <line x1="-7.83" y1="8.32" x2="7.83" y2="-8.32" />
      
    </g>
  
        </g>
      
        <g transform="translate(0.00 -34.00) rotate(0)">
          
    <g class="block" stroke="#63c7ff" fill="none">
      <path d="M -10 12 L -9 -6 L -4 -14 L 4 -14 L 9 -6 L 10 12 Z" />
      <line x1="0" y1="-14" x2="0" y2="-22" />
      
    </g>
  
        </g>
      
        <g transform="translate(0.00 34.00) rotate(0)">
          
    <g class="block" stroke="#63c7ff" fill="none">
      <path d="M -11 -12 L 11 -12 L 7 10 L -7 10 Z" />
    </g>
  
        </g>
      
      </g>
      
    <g transform="translate(0.00 0.00) scale(1.180)" stroke="#ff5f7f" fill="none" stroke-width="2" stroke-linecap="round" stroke-linejoin="round">
      
    </g>
  
      <text class="card-archetype" x="0" y="-162" fill="#63c7ff" text-anchor="middle">MANTA</text>
      <text class="card-blasters" x="0" y="160" text-anchor="middle">B 1  •  T 1  •  S 0</text>
      <text class="card-meta" x="0" y="184" text-anchor="middle">3x3 FOOTPRINT  •  7 CELLS</text>
    </g>
  
      </g>
    
      <g transform="translate(500 684)">
        <rect class="card" x="0" y="0" width="432" height="470" rx="22" />
        <rect x="16" y="16" width="400" height="46" rx="12" fill="rgba(185, 136, 255, 0.16)" />
        <text class="card-title" x="24" y="46">Cell</text>
        <text class="card-id" x="24" y="446">fortress-cell</text>
        
    <g transform="translate(216 248)">
      <g transform="scale(1.180)">
        
        <g transform="translate(0.00 0.00) rotate(0)">
          
    <g class="block" stroke="#ff5f7f" fill="rgba(255, 95, 127, 0.04)">
      <rect x="-12.24" y="-12.24" width="24.48" height="24.48" />
      <path d="M 0 -3 C 7 -12 14 -4 0 10 C -14 -4 -7 -12 0 -3" fill="none" />
    </g>
  
        </g>
      
        <g transform="translate(0.00 -34.00) rotate(0)">
          
    <g class="block" stroke="#b988ff" fill="rgba(185, 136, 255, 0.04)">
      <rect x="-12.24" y="-12.24" width="24.48" height="24.48" />
      <line x1="-7.83" y1="-8.32" x2="7.83" y2="8.32" />
      <line x1="-7.83" y1="8.32" x2="7.83" y2="-8.32" />
      
    </g>
  
        </g>
      
        <g transform="translate(-34.00 0.00) rotate(0)">
          
    <g class="block" stroke="#b988ff" fill="rgba(185, 136, 255, 0.04)">
      <rect x="-12.24" y="-12.24" width="24.48" height="24.48" />
      <line x1="-7.83" y1="-8.32" x2="7.83" y2="8.32" />
      <line x1="-7.83" y1="8.32" x2="7.83" y2="-8.32" />
      
    </g>
  
        </g>
      
        <g transform="translate(34.00 0.00) rotate(0)">
          
    <g class="block" stroke="#b988ff" fill="rgba(185, 136, 255, 0.04)">
      <rect x="-12.24" y="-12.24" width="24.48" height="24.48" />
      <line x1="-7.83" y1="-8.32" x2="7.83" y2="8.32" />
      <line x1="-7.83" y1="8.32" x2="7.83" y2="-8.32" />
      
    </g>
  
        </g>
      
        <g transform="translate(0.00 34.00) rotate(0)">
          
    <g class="block" stroke="#b988ff" fill="rgba(185, 136, 255, 0.04)">
      <rect x="-12.24" y="-12.24" width="24.48" height="24.48" />
      <line x1="-7.83" y1="-8.32" x2="7.83" y2="8.32" />
      <line x1="-7.83" y1="8.32" x2="7.83" y2="-8.32" />
      
    </g>
  
        </g>
      
        <g transform="translate(0.00 -68.00) rotate(0)">
          
    <g class="block" stroke="#b988ff" fill="none">
      <path d="M -10 12 L -9 -6 L -4 -14 L 4 -14 L 9 -6 L 10 12 Z" />
      <line x1="0" y1="-14" x2="0" y2="-22" />
      
    </g>
  
        </g>
      
        <g transform="translate(0.00 68.00) rotate(0)">
          
    <g class="block" stroke="#b988ff" fill="none">
      <path d="M -11 -12 L 11 -12 L 7 10 L -7 10 Z" />
    </g>
  
        </g>
      
      </g>
      
    <g transform="translate(0.00 0.00) scale(1.180)" stroke="#ff5f7f" fill="none" stroke-width="2" stroke-linecap="round" stroke-linejoin="round">
      
    </g>
  
      <text class="card-archetype" x="0" y="-162" fill="#b988ff" text-anchor="middle">FORTRESS</text>
      <text class="card-blasters" x="0" y="160" text-anchor="middle">B 1  •  T 1  •  S 0</text>
      <text class="card-meta" x="0" y="184" text-anchor="middle">3x5 FOOTPRINT  •  7 CELLS</text>
    </g>
  
      </g>
    
      <g transform="translate(956 684)">
        <rect class="card" x="0" y="0" width="432" height="470" rx="22" />
        <rect x="16" y="16" width="400" height="46" rx="12" fill="rgba(185, 136, 255, 0.16)" />
        <text class="card-title" x="24" y="46">Nook</text>
        <text class="card-id" x="24" y="446">fortress-nook</text>
        
    <g transform="translate(216 248)">
      <g transform="scale(1.180)">
        
        <g transform="translate(0.00 0.00) rotate(0)">
          
    <g class="block" stroke="#ff5f7f" fill="rgba(255, 95, 127, 0.04)">
      <rect x="-12.24" y="-12.24" width="24.48" height="24.48" />
      <path d="M 0 -3 C 7 -12 14 -4 0 10 C -14 -4 -7 -12 0 -3" fill="none" />
    </g>
  
        </g>
      
        <g transform="translate(0.00 -34.00) rotate(0)">
          
    <g class="block" stroke="#b988ff" fill="rgba(185, 136, 255, 0.04)">
      <rect x="-12.24" y="-12.24" width="24.48" height="24.48" />
      <line x1="-7.83" y1="-8.32" x2="7.83" y2="8.32" />
      <line x1="-7.83" y1="8.32" x2="7.83" y2="-8.32" />
      
    </g>
  
        </g>
      
        <g transform="translate(-34.00 0.00) rotate(0)">
          
    <g class="block" stroke="#b988ff" fill="rgba(185, 136, 255, 0.04)">
      <rect x="-12.24" y="-12.24" width="24.48" height="24.48" />
      <line x1="-7.83" y1="-8.32" x2="7.83" y2="8.32" />
      <line x1="-7.83" y1="8.32" x2="7.83" y2="-8.32" />
      
    </g>
  
        </g>
      
        <g transform="translate(34.00 0.00) rotate(0)">
          
    <g class="block" stroke="#b988ff" fill="rgba(185, 136, 255, 0.04)">
      <rect x="-12.24" y="-12.24" width="24.48" height="24.48" />
      <line x1="-7.83" y1="-8.32" x2="7.83" y2="8.32" />
      <line x1="-7.83" y1="8.32" x2="7.83" y2="-8.32" />
      
    </g>
  
        </g>
      
        <g transform="translate(0.00 34.00) rotate(0)">
          
    <g class="block" stroke="#b988ff" fill="rgba(185, 136, 255, 0.04)">
      <rect x="-12.24" y="-12.24" width="24.48" height="24.48" />
      <line x1="-7.83" y1="-8.32" x2="7.83" y2="8.32" />
      <line x1="-7.83" y1="8.32" x2="7.83" y2="-8.32" />
      
    </g>
  
        </g>
      
        <g transform="translate(-68.00 0.00) rotate(270)">
          
    <g class="block" stroke="#b988ff" fill="none">
      <path d="M -12 18 Q 0 -12 12 18" />
      <line x1="-10" y1="7" x2="10" y2="7" />
    </g>
  
        </g>
      
        <g transform="translate(68.00 0.00) rotate(90)">
          
    <g class="block" stroke="#b988ff" fill="none">
      <path d="M -12 18 Q 0 -12 12 18" />
      <line x1="-10" y1="7" x2="10" y2="7" />
    </g>
  
        </g>
      
        <g transform="translate(0.00 68.00) rotate(0)">
          
    <g class="block" stroke="#b988ff" fill="none">
      <path d="M -11 -12 L 11 -12 L 7 10 L -7 10 Z" />
    </g>
  
        </g>
      
      </g>
      
    <g transform="translate(0.00 0.00) scale(1.180)" stroke="#ff5f7f" fill="none" stroke-width="2" stroke-linecap="round" stroke-linejoin="round">
      
    </g>
  
      <text class="card-archetype" x="0" y="-162" fill="#b988ff" text-anchor="middle">FORTRESS</text>
      <text class="card-blasters" x="0" y="160" text-anchor="middle">B 0  •  T 1  •  S 2</text>
      <text class="card-meta" x="0" y="184" text-anchor="middle">5x4 FOOTPRINT  •  8 CELLS</text>
    </g>
  
      </g>
    
      <g transform="translate(1412 684)">
        <rect class="card" x="0" y="0" width="432" height="470" rx="22" />
        <rect x="16" y="16" width="400" height="46" rx="12" fill="rgba(108, 255, 148, 0.16)" />
        <text class="card-title" x="24" y="46">Peck</text>
        <text class="card-id" x="24" y="446">vulture-peck</text>
        
    <g transform="translate(216 248)">
      <g transform="scale(1.180)">
        
        <g transform="translate(0.00 0.00) rotate(0)">
          
    <g class="block" stroke="#ff5f7f" fill="rgba(255, 95, 127, 0.04)">
      <rect x="-12.24" y="-12.24" width="24.48" height="24.48" />
      <path d="M 0 -3 C 7 -12 14 -4 0 10 C -14 -4 -7 -12 0 -3" fill="none" />
    </g>
  
        </g>
      
        <g transform="translate(-51.00 0.00) rotate(90)">
          
    <g class="block" stroke="#6cff94" fill="rgba(108, 255, 148, 0.04)">
      <rect x="-12.24" y="-29.24" width="24.48" height="58.48" />
      <line x1="-7.83" y1="-21.24" x2="7.83" y2="21.24" />
      <line x1="-7.83" y1="21.24" x2="7.83" y2="-21.24" />
      <line x1="-8.32" y1="0.00" x2="8.32" y2="0.00" />
    </g>
  
        </g>
      
        <g transform="translate(34.00 0.00) rotate(0)">
          
    <g class="block" stroke="#6cff94" fill="rgba(108, 255, 148, 0.04)">
      <rect x="-12.24" y="-12.24" width="24.48" height="24.48" />
      <line x1="-7.83" y1="-8.32" x2="7.83" y2="8.32" />
      <line x1="-7.83" y1="8.32" x2="7.83" y2="-8.32" />
      
    </g>
  
        </g>
      
        <g transform="translate(34.00 -34.00) rotate(0)">
          
    <g class="block" stroke="#6cff94" fill="none">
      <path d="M -10 12 L -9 -6 L -4 -14 L 4 -14 L 9 -6 L 10 12 Z" />
      <line x1="0" y1="-14" x2="0" y2="-22" />
      
    </g>
  
        </g>
      
        <g transform="translate(-68.00 34.00) rotate(0)">
          
    <g class="block" stroke="#6cff94" fill="none">
      <path d="M -11 -12 L 11 -12 L 7 10 L -7 10 Z" />
    </g>
  
        </g>
      
      </g>
      
    <g transform="translate(0.00 0.00) scale(1.180)" stroke="#ff5f7f" fill="none" stroke-width="2" stroke-linecap="round" stroke-linejoin="round">
      <path d="M -7 12.24 L -4 17.68 L 4 17.68 L 7 12.24" />
    </g>
  
      <text class="card-archetype" x="0" y="-162" fill="#6cff94" text-anchor="middle">VULTURE</text>
      <text class="card-blasters" x="0" y="160" text-anchor="middle">B 1  •  T 1  •  S 0</text>
      <text class="card-meta" x="0" y="184" text-anchor="middle">4x3 FOOTPRINT  •  6 CELLS</text>
    </g>
  
      </g>
    
      <g transform="translate(1868 684)">
        <rect class="card" x="0" y="0" width="432" height="470" rx="22" />
        <rect x="16" y="16" width="400" height="46" rx="12" fill="rgba(108, 255, 148, 0.16)" />
        <text class="card-title" x="24" y="46">Snag</text>
        <text class="card-id" x="24" y="446">vulture-snag</text>
        
    <g transform="translate(216 248)">
      <g transform="scale(1.180)">
        
        <g transform="translate(0.00 0.00) rotate(0)">
          
    <g class="block" stroke="#ff5f7f" fill="rgba(255, 95, 127, 0.04)">
      <rect x="-12.24" y="-12.24" width="24.48" height="24.48" />
      <path d="M 0 -3 C 7 -12 14 -4 0 10 C -14 -4 -7 -12 0 -3" fill="none" />
    </g>
  
        </g>
      
        <g transform="translate(-34.00 0.00) rotate(0)">
          
    <g class="block" stroke="#6cff94" fill="rgba(108, 255, 148, 0.04)">
      <rect x="-12.24" y="-12.24" width="24.48" height="24.48" />
      <line x1="-7.83" y1="-8.32" x2="7.83" y2="8.32" />
      <line x1="-7.83" y1="8.32" x2="7.83" y2="-8.32" />
      
    </g>
  
        </g>
      
        <g transform="translate(34.00 0.00) rotate(0)">
          
    <g class="block" stroke="#6cff94" fill="rgba(108, 255, 148, 0.04)">
      <rect x="-12.24" y="-12.24" width="24.48" height="24.48" />
      <line x1="-7.83" y1="-8.32" x2="7.83" y2="8.32" />
      <line x1="-7.83" y1="8.32" x2="7.83" y2="-8.32" />
      
    </g>
  
        </g>
      
        <g transform="translate(34.00 34.00) rotate(0)">
          
    <g class="block" stroke="#6cff94" fill="rgba(108, 255, 148, 0.04)">
      <rect x="-12.24" y="-12.24" width="24.48" height="24.48" />
      <line x1="-7.83" y1="-8.32" x2="7.83" y2="8.32" />
      <line x1="-7.83" y1="8.32" x2="7.83" y2="-8.32" />
      
    </g>
  
        </g>
      
        <g transform="translate(34.00 -34.00) rotate(0)">
          
    <g class="block" stroke="#6cff94" fill="none">
      <path d="M -10 12 L -9 -6 L -4 -14 L 4 -14 L 9 -6 L 10 12 Z" />
      <line x1="-6" y1="-14" x2="-6" y2="-22" /><line x1="6" y1="-14" x2="6" y2="-22" />
      
    </g>
  
        </g>
      
        <g transform="translate(-34.00 34.00) rotate(0)">
          
    <g class="block" stroke="#6cff94" fill="none">
      <path d="M -11 -12 L 11 -12 L 7 10 L -7 10 Z" />
    </g>
  
        </g>
      
        <g transform="translate(-68.00 0.00) rotate(270)">
          
    <g class="block" stroke="#6cff94" fill="none">
      <path d="M -12 18 Q 0 -12 12 18" />
      <line x1="-10" y1="7" x2="10" y2="7" />
    </g>
  
        </g>
      
      </g>
      
    <g transform="translate(0.00 0.00) scale(1.180)" stroke="#ff5f7f" fill="none" stroke-width="2" stroke-linecap="round" stroke-linejoin="round">
      <path d="M -7 12.24 L -4 17.68 L 4 17.68 L 7 12.24" />
    </g>
  
      <text class="card-archetype" x="0" y="-162" fill="#6cff94" text-anchor="middle">VULTURE</text>
      <text class="card-blasters" x="0" y="160" text-anchor="middle">B 1  •  T 1  •  S 1</text>
      <text class="card-meta" x="0" y="184" text-anchor="middle">4x3 FOOTPRINT  •  7 CELLS</text>
    </g>
  
      </g>
    
</svg>
